<svg xmlns="http://www.w3.org/2000/svg" xml:space="preserve" width="1024" height="1024" stroke="null" style="vector-effect:non-scaling-stroke"><title>Layer 1</title><path fill="none" stroke="none" d="M459.087 1309.02H-253V-229h1536.932v1538.02zm92.087-944.997c.32.266.64.533.954.69 0 0-.101.044.036.81.766 1.012 1.532 2.023 2.348 2.849 0 0-.122.15.024.838.448.517.895 1.033 1.549 2.37 10.574 16.056 21.12 32.13 31.757 48.144 1.302 1.96 3.097 3.59 4.61 6.232 9.127 13.883 18.254 27.766 27.568 42.463 4.11 6.33 8.15 12.706 12.342 18.98 9.96 14.91 19.993 29.77 30.428 45.329 9.674 14.71 19.348 29.419 29.152 44.908.78.653 1.561 1.307 2.312 2.82 2.78 4.214 5.56 8.427 8.262 12.583 0 0 .004.097.088.595 0 0 .375.337.55 1.166 6.876 13.61 13.706 27.243 20.669 40.808 1.313 2.558 3.922 4.648 4.6 7.295 1.763 6.881 2.784 13.952 4.045 21.94 1.186 6.792 3.204 13.56 3.398 20.379.528 18.622.287 37.265.07 56.68 0 .547-.001 1.095-.434 2.167-.045.662-.09 1.324-.472 2.774-.012.567-.025 1.134-.359 2.619-.884 4.96-1.768 9.921-2.49 14.913 0 0-.032-.162-.702.406-.83 3.16-1.66 6.32-2.924 10.298-5.22 12.813-10.439 25.627-16.056 39.2-9.826 18.731-22.055 35.727-36.515 51.164-16.467 17.58-35.661 31.593-57.232 43.815-4.625 2.385-9.25 4.771-14.672 7.195-.94.475-1.88.95-3.73 1.489-4.197 1.526-8.384 3.083-12.594 4.574-19.309 6.834-39.365 9.837-60.776 11.46-9.167-.328-18.48.264-27.467-1.18-17.253-2.772-34.32-6.699-52.304-10.382-3.139-1.252-6.277-2.505-10.023-4.404-5.758-2.562-11.516-5.124-17.824-8.305-23.376-11.714-42.612-28.973-61.764-46.928-.342-.528-.684-1.055-1.34-2.318-1.274-1.322-2.547-2.644-4.094-4.748-20.286-24.123-34.526-51.525-44.154-82.371-9.031-31.638-11.117-63.703-5.721-96.185 3.296-19.844 9.307-38.902 17.726-57.982 12.924-20.78 25.648-41.687 38.826-62.304 14.398-22.525 29.216-44.78 44.514-67.64 5.963-8.97 11.925-17.938 18.432-26.234 4.844 7.437 9.688 14.874 14.617 22.428 0 0 .037.14.119.485 0 0 .313.166.524 1 6.087 8.794 12.174 17.586 18.24 27.251 9.044 13.928 18.087 27.856 27.303 42.617 10.198 15.66 20.396 31.32 30.776 47.8.7.974 1.448 1.92 2.094 2.929 11.013 17.204 22.014 34.416 33.172 52.46 4.314 6.678 8.399 13.519 12.991 20 8.883 12.534 12.646 26.284 10.58 42.22.039.234.077.468-.229 1.567-.479 2.123-.958 4.247-2.02 7-4.388 6.743-7.808 14.444-13.35 20.044-14.925 15.08-33.364 17.884-54.26 12.218-3.28-1.613-6.561-3.226-10.309-5.532-3.19-2.232-6.381-4.463-9.646-7.546-3.252-4.98-6.505-9.959-9.8-15.704-.384-.637-.769-1.274-1.146-2.678-.387-.908-.774-1.816-1.168-3.337 0 0-.332-.515-.288-1.396-.208-.543-.416-1.086-.456-2.364-.286-.944-.571-1.888-.748-3.873-.141-1.732-.282-3.463-.19-6.275-.42-12.27 3.817-23.075 11.1-33.545l20.905-18.074c-.39-.689-1.206-2.293-2.167-3.806a25764 25764 0 0 0-35.137-55.196c-3.993-6.25-6.593-6.755-12.982-2.586-39.99 26.096-60.945 63.207-62.785 110.766-.73 18.872 2.515 37.354 11.176 55.186.455.77.91 1.541 1.441 3.207 9.652 20.36 23.264 37.465 41.908 51.229.368.169.737.337 1.587 1.18 3.093 1.891 6.187 3.783 9.764 6.347 27.02 16.027 56.241 21.878 87.103 16.906 61.534-9.914 108.006-61.212 112.233-123.409 1.494-21.996-.826-43.63-9.443-65.11-7.33-21.769-20.615-40.172-33.666-59.664-1.566-2.313-3.185-4.591-4.69-6.943-10.949-17.098-21.874-34.21-32.984-52.116-5.617-8.6-11.235-17.199-17.106-26.634-7.417-11.53-14.834-23.058-22.413-35.422-7.765-11.959-15.53-23.918-23.486-36.69-3.115-4.698-6.23-9.396-9.405-14.016 0 0 .097-.014-.046-.751-.348-.346-.696-.692-1.228-1.827-7.888-12.214-15.776-24.428-23.891-37.413-13.756-21.672-27.496-43.353-41.278-65.008-4.124-6.48-8.648-6.56-13.138-.071-13.219 19.103-26.36 38.26-39.468 57.438a2122 2122 0 0 0-22.004 32.896s-.065-.152-.744.252a1492 1492 0 0 0-2.843 4.696s-.01.005-.683.462c-2.256 3.505-4.513 7.01-6.675 10.566 0 0-.06-.088-.701.322-.348.673-.695 1.345-1.672 2.494-4.874 7.042-9.815 14.039-14.61 21.134-15.295 22.63-30.534 45.296-46.472 68.386-2.187 3.408-4.374 6.815-7.299 10.683-2.952 4.566-5.904 9.131-9.407 14.276-7.22 11.833-15.314 23.228-21.5 35.58-19.885 39.709-28.934 82.287-29.972 126.436-.415 17.662 1.883 35.387 2.836 54.137 3.807 17.098 6.694 34.472 11.705 51.209 4.223 14.104 10.913 27.47 16.574 42.029 3.424 6.46 6.638 13.044 10.31 19.36 13.566 23.328 29.38 44.916 49.897 63.813 5.912 5.295 11.628 10.832 17.772 15.843 20.094 16.384 41.503 30.722 65.976 41.66 1.481.674 2.953 1.372 4.446 2.02 25.123 10.897 51.03 19 79.194 22.481 29.085 4.105 58.174 4.621 88.261.176 15.65-3.669 31.3-7.338 47.859-11.002 8.61-3.161 17.364-5.977 25.804-9.538 61.753-26.057 108.843-69 143.393-125.99 18.529-30.563 32.27-63.187 39.52-99.002-.027-.207-.055-.413.186-1.426-.103-.55-.206-1.099.073-2.565.4-1.326 1.003-2.628 1.164-3.983.874-7.314 1.04-14.769 2.555-21.94 4.337-20.519 3.389-41.061 1.43-62.767-1.129-8.16-2.257-16.32-3.29-25.45-3.57-14.004-6.677-28.15-10.892-41.957-2.285-7.48-6.531-14.352-9.76-21.557-3.722-8.3-7.298-16.667-11.096-25.846-11.125-18.126-22.249-36.252-33.605-55.144-13.196-20.7-26.392-41.402-39.768-62.92-12.894-19.712-25.787-39.423-38.982-59.963-1.643-2.28-3.387-4.496-4.912-6.853-9.812-15.16-19.575-30.35-29.538-46.327-12.868-19.622-25.737-39.244-38.919-59.696-19.225-30.972-38.45-61.944-57.74-93.79-3.599-14.933-8.568-29.702-10.368-44.85-1.484-12.49.785-25.427 1.764-39.037 6.13-30.575 18.989-58.211 36.438-83.87 1.524-2.241 2.466-4.879 4.003-7.238-.083.003-.166.005-1.133.053-2.383 1.16-4.788 2.276-7.145 3.485-27.067 13.883-54.128 27.883-76.455 49.05-34.2 32.422-49.247 71.969-43.067 120.147 3.07 11.825 5.374 23.915 9.357 35.423 9.924 28.68 27.525 53.1 44.862 78.541 2.429 3.657 4.862 7.31 7.287 10.97 11.444 17.274 22.886 34.55 34.457 52.586 1.06 1.424 2.119 2.847 3.319 4.977.451.531.903 1.063 1.318 1.66 0 0 .075 0 .169.644"/><path fill="#eeb65e" d="M572.318 722.887c-.038-.234-.076-.468.43-1.216.881-4.287 1.029-8.09 1.648-11.816.246-1.482 1.306-3.756 2.389-4.013 5.105-1.214 10.368-2.63 15.534-2.49 5.694.156 8.223-2.738 9.82-7.176 1.464-4.073 3.647-6.629 8.318-6.59 3.956.032 5.403-2.637 3.643-5.686-2.365-4.096-.454-6.232 2.21-8.795 2.33-2.241 3.892-5.443 6.48-7.218 4.845-3.324 7.563-12.185 16.282-6.902.631.382 2.782-1.747 4.226-2.708 8.615 20.607 10.935 42.24 9.44 64.237-4.226 62.197-50.698 113.495-112.232 123.409-30.862 4.972-60.082-.879-87.332-17.744-1.252-3.817-2.3-6.786-3.28-9.778-.394-1.2-.637-2.448-.948-3.674 1.284-.016 2.57-.003 3.852-.053 2.416-.093 5.621.717 7.087-.521 3.556-3.004 6.303-6.968 9.576-10.779l-3.461-6.47c8.866-1.182 17.882-.057 20.514-11.106 1.019 1.372 1.388 1.654 1.454 1.995.352 1.812.627 3.639.928 5.46.91-.235 2.509-.308 2.61-.736.458-1.935.45-3.975.69-5.968.364-3.044.304-6.255 1.31-9.079 1.507-4.226 4.352-4.215 7.496-.82 1.2 1.295 3.297 1.757 4.985 2.599l3.157-2.128c-9.66-2.81-5.738-8.807-5.945-13.835 20.041 5.394 38.48 2.59 53.405-12.49 5.542-5.6 8.962-13.301 14.082-20.438 1.032-2.753 1.332-5.112 1.632-7.471z"/><path fill="#cd8a32" d="M218.86 759.553c-1.062-17.696-3.36-35.421-2.945-53.083 1.038-44.149 10.087-86.727 29.972-126.436 6.186-12.352 14.28-23.747 21.851-35.457 4.414 2.228 8.373 4.598 12.608 6.266 1.172.462 3.276-.985 4.717-1.92.505-.327.302-1.746.422-2.666-1.484-.084-2.971-.14-4.452-.263-.953-.08-1.898-.26-1.83-.25l-1.67-16.027c2.186-3.407 4.373-6.814 7.368-10.408 3.436 1.853 6.591 3.48 8.58 6.02 3.823 4.886 5.654 4.937 9.069-.17 1.01-1.51 3.56-3.185 5.103-2.935 5.98.971 7.685-.063 8.036-6.188.346-6.038 1.954-7.224 8.081-6.31 1.453.217 3.835.369 4.368-.416 3.561-5.25 8.624-6.187 14.406-6.298 1.18-.022 3.477-2.766 3.256-3.845-.746-3.637-1.444-6.554 3.642-6.99 5.07-.436 5.485 2.62 5.532 6.571.073 6.038.962 6.362 7.196 3.101-1.02-3.86-2.55-8.11 3.414-9.617 3.882-.98 7.69-2.294 11.604-3.098 1.87-.384 4.545-.712 5.766.28 5.22 4.239 7.84 1.592 10.477-2.95.739-1.272 2.783-2.636 4.08-2.503 1.396.142 2.715 1.901 3.875 3.136.639.681.883 1.734 1.306 2.618-14.635 22.373-29.453 44.629-43.85 67.154-13.179 20.617-25.903 41.524-39.438 62.347-.06-3.675-1.653-5.414-5.416-5.631-8.06-.465-11.615 2.087-14.418 9.875-.553 1.536-2.622 2.819-4.282 3.601-3.27 1.54-4.47 3.51-3.718 7.27.399 1.997-.614 4.43-1.443 6.483-1.078 2.67-3.133 5.023-3.826 7.752-1.274 5.02-2.51 9.152-9.042 9.417-4.098.167-6.347 2.876-7.207 7.621-.79 4.356 1.582 10.57-5.12 12.682 4.357 5.837 4.121 6.373-2.185 9.27-2.195 1.009-3.989 2.891-6.192 4.545 8.229 5.738 8.089 5.733 2.459 13.362-4.817 6.528-10.29 12.9-13.432 20.217-1.993 4.644-3.737 8.053-8.27 10.242-1.346.65-1.986 2.894-2.802 4.483-2.192 4.267-7.136 4.68-9.508.497-1.588-2.8-2.477-6.003-3.617-9.05-.758-2.027-1.406-4.095-2.103-6.144l-1.755.452c.245 4.19.563 8.378.72 12.571.259 6.939.414 13.881.613 20.822m1.049-39.85-1.556-1.104-.415 1.632c.607.065 1.214.13 1.97-.529z"/><path fill="#f3c46d" d="M824.781 682.083c2.048 20.608 2.996 41.15-1.34 61.668-1.517 7.172-1.681 14.627-2.556 21.941-.161 1.355-.765 2.657-1.802 4.452-4.6 2.156-9.278 3.018-12.367 5.708-5.64 4.911-8.858 12.342-16.551 15.386-1.417.56-2.837 5.25-1.985 6.62 2.315 3.719.979 5.988-1.925 7.483-6.624 3.41-10.827 8.813-14.554 15.034-1.666 2.783-6.41 4.383-6.92 7.06-1.157 6.09-6.432 8.808-9.984 9.298-8.856 1.22-9.907 8.872-13.805 13.92-2.52 3.265-4.158 5.904-8.858 5.932-6.451.038-9.097 2.817-9.45 9.336-.205 3.792-2.187 5.355-5.353 5.128-6.894-.495-8.555 3.402-8.18 9.093.32 4.86-2.448 6.876-6.59 6.842-4.788-.04-6.008 2.23-5.73 6.449.434 6.594-2.687 10.042-9.302 11.134-2.277.375-5.254 2.335-6.14 4.35-4.722 10.746-11.822 19.473-20.792 26.903 3.017 7.196 2.595 6.217-4.632 9.333-6.126 2.64-15.767 1.953-16.33 12.433-.06 1.125-.647 2.83-1.472 3.204-4.743 2.152-5.15 6.344-5.566 10.658-.155 1.609-.336 3.265-.854 4.78-1.382 4.042-2.776 8.05-8.534 4.82-1.443-.81-3.585-.374-6.156-.567 5.871 12.696-3.495 15.6-10.748 19.381l3.53 8.329c-15.65 3.669-31.3 7.338-47.815 10.718-5.94-2.468-11.014-4.646-16.088-6.825l-.194-1.929c5.854-1.043 7.868-4.591 8.899-9.753.676-3.387 4.174-6.112 5.49-9.491 2.351-6.04 5.996-11.018 10.208-15.81.914-1.041.677-3.743.075-5.343-1.585-4.218.765-6.588 3.931-7.523 4.968-1.468 7.145-4.633 8.667-9.244.588-1.783 3.22-4.093 4.93-4.1 8.409-.037 9.41-.897 11.043-8.853.695-3.388 4.706-6.85 4.08-9.55-.675-2.916-5.011-4.982-7.803-7.465l6.002-5.146c.94-.475 1.88-.95 3.46-1.122 5.397-2.34 10.151-4.983 14.906-7.626 20.697-12.093 39.89-26.106 56.358-43.686 14.46-15.437 26.69-32.433 37.178-51.56 1.38-.706 2.54-.838 2.747-1.353 3.043-7.582 7.918-11.98 16.66-10.054 4.607 1.015 6.349-1.91 8.197-5.424 1.937-3.68 3.898-8.44 7.173-10.08 5.502-2.756 8.873-6.337 9.708-12.081.576-3.966 2.505-5.371 6.187-6.124 2.592-.53 5.172-2.02 7.32-3.656 5.24-3.99 5.547-8.98 1.248-14.095 1.603-.98 2.424-1.886 3.317-1.964 5.496-.48 8.541-3.26 9.986-8.684.52-1.953 2.992-3.651 4.931-4.916 8.195-5.342 19.091-8.483 16.81-21.902-.094-.553.88-1.238 1.232-1.925 1.522-2.964 3.817-5.816 4.334-8.956 1.39-8.454 5-15.35 11.77-20.586z"/><path fill="#f5c872" d="M610.29 1008.193c-1.571-2.636-2.687-5.27-3.985-8.33 7.253-3.782 16.62-6.686 10.748-19.382 2.571.193 4.713-.244 6.156.566 5.758 3.23 7.152-.777 8.534-4.819.518-1.515.7-3.171.854-4.78.415-4.314.823-8.506 5.566-10.658.825-.374 1.412-2.08 1.472-3.204.563-10.48 10.204-9.793 16.33-12.433 7.227-3.116 7.649-2.137 4.632-9.333 8.97-7.43 16.07-16.157 20.792-26.903.886-2.015 3.863-3.975 6.14-4.35 6.615-1.092 9.736-4.54 9.302-11.134-.278-4.22.942-6.488 5.73-6.449 4.142.034 6.91-1.982 6.59-6.842-.375-5.69 1.286-9.588 8.18-9.093 3.166.227 5.148-1.336 5.353-5.128.353-6.519 2.999-9.298 9.45-9.336 4.7-.028 6.337-2.667 8.858-5.932 3.898-5.048 4.949-12.7 13.805-13.92 3.552-.49 8.827-3.208 9.985-9.297.509-2.678 5.253-4.278 6.92-7.06 3.726-6.222 7.93-11.625 14.553-15.035 2.904-1.495 4.24-3.764 1.925-7.484-.852-1.368.568-6.058 1.985-6.619 7.693-3.044 10.91-10.475 16.551-15.386 3.09-2.69 7.768-3.552 12.176-5.25.55.54.653 1.088.429 2.136-.412.613-.593.774-.565.832.119.24.3.449.46.67-7.004 35.241-20.745 67.865-39.274 98.429-34.55 56.99-81.64 99.932-143.393 125.989-8.44 3.561-17.195 6.377-26.259 9.535z"/><path fill="#d9963d" d="M218.806 760.08c-.145-7.468-.3-14.41-.56-21.349-.156-4.193-.474-8.38-.72-12.57l1.756-.453c.697 2.05 1.345 4.117 2.103 6.144 1.14 3.047 2.03 6.25 3.617 9.05 2.372 4.184 7.316 3.77 9.508-.497.816-1.59 1.456-3.834 2.802-4.483 4.533-2.19 6.277-5.598 8.27-10.242 3.143-7.318 8.615-13.69 13.432-20.217 5.63-7.629 5.77-7.624-2.46-13.362 2.204-1.654 3.998-3.536 6.193-4.545 6.306-2.897 6.542-3.433 2.185-9.27 6.702-2.113 4.33-8.326 5.12-12.682.86-4.745 3.109-7.454 7.207-7.62 6.533-.266 7.768-4.398 9.042-9.418.693-2.73 2.748-5.082 3.826-7.752.829-2.053 1.842-4.486 1.443-6.483-.752-3.76.448-5.73 3.718-7.27 1.66-.782 3.73-2.065 4.282-3.6 2.803-7.789 6.358-10.34 14.418-9.876 3.763.217 5.356 1.956 5.112 5.917-7.504 18.751-13.515 37.81-16.811 57.653-5.396 32.482-3.31 64.547 5.211 96.647-3.164.46-5.829.608-8.47.424-7.869-.55-9.466 1.608-7.636 9.299.574 2.413.33 6.936-.969 7.571-8.371 4.1-5.91 11.095-5.543 17.595.423 7.474 1 14.918-7.682 18.745-.972.429-1.324 2.296-1.933 3.512-1.33 2.654-2.677 5.3-3.948 7.982-1.188 2.504-2.407 5.004-3.389 7.59-.877 2.311-1.448 4.738-2.154 7.114-4.252-2.952-9.58 4.332-13.686-1.569-1.795-2.577-4.036-2.89-5.123.913-5.598-13.693-12.288-27.058-16.51-41.162-5.012-16.737-7.899-34.11-11.651-51.736z"/><path fill="#c4812a" d="M403.023 489.472c-.754-.641-.998-1.694-1.637-2.375-1.16-1.235-2.48-2.994-3.874-3.136-1.298-.133-3.342 1.23-4.08 2.503-2.638 4.542-5.258 7.189-10.478 2.95-1.22-.992-3.896-.664-5.766-.28-3.915.804-7.722 2.118-11.604 3.098-5.965 1.507-4.435 5.758-3.414 9.617-6.234 3.261-7.123 2.937-7.196-3.1-.047-3.953-.462-7.008-5.532-6.573-5.086.437-4.388 3.354-3.642 6.991.221 1.079-2.075 3.823-3.256 3.845-5.782.11-10.845 1.049-14.406 6.298-.533.785-2.915.633-4.368.416-6.127-.914-7.735.272-8.08 6.31-.352 6.125-2.057 7.159-8.037 6.188-1.544-.25-4.093 1.424-5.103 2.936-3.415 5.106-5.246 5.055-9.07.17-1.988-2.542-5.143-4.168-8.24-6.24 14.79-22.685 30.03-45.351 45.324-67.98 4.796-7.096 9.737-14.093 15.318-21.499 1.006-1.09 1.306-1.815 1.605-2.54 0 0 .06.088.45.039 2.58-3.69 4.77-7.332 6.958-10.974 0 0 .011-.005.456-.06 1.322-1.717 2.2-3.38 3.077-5.045 0 0 .065.152.505.159 5.653 2.745 4.243 7.844 4.47 12.14.398 7.505 1.586 8.714 8.754 6.84 7.592-1.986 15.042-4.614 22.715-6.167 5.996-1.214 12.24-1.665 18.37-1.63 6.697.04 12.596-.27 15.542-7.746.613-1.555 2.972-2.938 4.784-3.412 7.741-2.023 13.922-11.463 23.478-5.118.262.174.792-.013 1.188-.086 6.344-1.176 12.712-2.244 19.005-3.652 1.132-.253 1.949-1.913 2.911-2.923l-1.16-1.955c-2.322.867-4.846 1.406-6.92 2.68-2.814 1.729-4.329 1.295-5.634-1.708-2.77-6.373-.769-9.342 8.172-11.754 7.888 12.214 15.776 24.428 23.824 37.41.51 1.11.86 1.453 1.211 1.796 0 0-.097.014-.09.487-.217 2.133-.442 3.794-.742 6.01-5.368-2.185-8.048-.965-11.963 2.893-5.45 5.372-13.497 8.105-21.169 12.378v-7.871q-.845-.51-1.69-1.017c-1.83 4.73-.999 11.791-7.616 11.26-1.03 3.244-1.07 6.952-2.841 8.197-3.526 2.48-7.953 3.751-12.121 5.19-1.063.366-2.793-.165-3.81-.87-8.414-5.831-8.385-5.873-16.358-.24-5.963 8.969-11.925 17.938-18.22 27.15z"/><path fill="#cc8931" d="M504.422 292.364c-17.135-24.619-34.736-49.04-44.66-77.719-3.983-11.508-6.288-23.598-8.951-36.284.405-6.114.405-11.367.405-16.62 2.629 4.812 4.062 9.876 5.404 14.964.612 2.324.449 5.083 1.673 6.971 3.394 5.236 7.085 10.34 11.252 14.96.887.984 5.135.547 6.373-.695 4.218-4.232 7.61-9.272 11.637-13.715 6.222-6.865 6.376-10.836.79-19.529-.912-1.42-1.072-4.247-.234-5.572.655-1.035 3.391-.94 5.21-.976 1.003-.02 2.022.725 3.636 1.364-.414-5.455-.041-9.952 5.84-11.45.744-.19 1.528-1.987 1.535-3.044.059-9.12 1.196-17.59 5.76-26.099 2.875-5.359 5.365-10.135 10.944-11.98 5.185-1.714 11.256-1.263 13.484-7.952.148-.444 1.877-.36 2.871-.522-.606 12.74-2.875 25.676-1.391 38.167 1.8 15.147 6.77 29.916 10.202 45.766.035 4.676.234 8.434.414 11.812h-7.023c.284 2.706.551 5.413.87 8.114.045.383.386.721.506 1.106 1.707 5.47 3.453 10.929 5.043 16.432.258.892.196 2.426-.368 2.92-4.769 4.172-2.821 7.489 2.266 10.822-2.498 1.09-4.418 1.443-5.604 2.568-1.468 1.393-3.632 3.852-3.223 5.112 1.68 5.177.06 9.375-1.895 14.032-2.736 6.516-4.558 13.417-6.921 20.61-6.47-.135-7.183 3.486-5.33 9.162.485 1.487-.913 3.588-1.446 5.407-1.731-.84-3.659-1.433-5.127-2.603-1.026-.817-1.248-3.338-2.135-3.509-2.812-.541-6.576-1.464-8.448-.117-2.017 1.45-2.313 5.296-3.36 8.097z"/><path fill="#e6a349" d="M246.999 853.411c1.055-4.235 3.296-3.923 5.09-1.346 4.107 5.9 9.435-1.383 13.687 1.569.706-2.376 1.277-4.803 2.154-7.113.982-2.587 2.201-5.087 3.389-7.591 1.271-2.682 2.618-5.328 3.948-7.982.609-1.216.961-3.083 1.933-3.512 8.681-3.827 8.105-11.271 7.682-18.745-.367-6.5-2.829-13.496 5.543-17.595 1.298-.635 1.543-5.158.969-7.571-1.83-7.691-.233-9.85 7.636-9.3 2.641.185 5.306.036 8.494.036 10.114 29.925 24.354 57.327 44.788 82.304 1.52 2.113 2.89 3.372 4.26 4.63.342.527.684 1.054.782 2.344-1.035 1.362-1.738 2.222-2.629 2.518-7.115 2.362-7.16 2.979-3.695 9.526.898 1.697-.043 4.676-.771 6.855-.991 2.964-3.516 5.662-3.713 8.586-.306 4.547-1.938 6.406-6.323 5.883-4.27-.51-5.992 1.83-4.71 5.384 2.193 6.08-1.553 9.998-3.402 15.05-2.423 6.619-6.775 9.355-12.235 11.948-1.232.585-2 2.141-3.228 2.745-3.177 1.56-6.493 2.837-9.753 4.227-20.176-18.14-35.989-39.728-49.554-63.056-3.673-6.316-6.887-12.9-10.342-19.794z"/><path fill="#c4812a" d="M537.577 98.03c-1.18.598-2.91.514-3.057.958-2.228 6.689-8.299 6.238-13.484 7.952-5.58 1.845-8.07 6.621-10.944 11.98-4.564 8.51-5.701 16.978-5.76 26.099-.007 1.057-.79 2.854-1.536 3.044-5.88 1.498-6.253 5.995-5.839 11.45-1.614-.639-2.633-1.383-3.636-1.364-1.819.036-4.555-.059-5.21.976-.838 1.325-.678 4.152.235 5.572 5.585 8.693 5.431 12.664-.791 19.53-4.026 4.442-7.42 9.482-11.637 13.714-1.238 1.242-5.486 1.68-6.373.696-4.167-4.62-7.858-9.725-11.252-14.96-1.224-1.89-1.06-4.648-1.673-6.972-1.342-5.088-2.775-10.152-5.404-14.964 0 5.253 0 10.506-.35 16.105-6.641-46.802 8.406-86.349 42.606-118.77 22.327-21.168 49.388-35.168 76.455-49.05 2.357-1.21 4.762-2.326 7.57-3.536.426-.05.383-.097.383-.097-1.212 2.453-2.154 5.09-3.678 7.332-17.449 25.659-30.308 53.295-36.625 84.305z"/><path fill="#d6933a" d="M504.523 292.775c.945-3.212 1.241-7.058 3.258-8.508 1.872-1.347 5.636-.424 8.448.117.887.171 1.109 2.692 2.135 3.51 1.468 1.17 3.396 1.763 5.127 2.602.533-1.819 1.93-3.92 1.446-5.407-1.853-5.676-1.14-9.297 5.33-9.162 2.363-7.193 4.185-14.094 6.921-20.61 1.956-4.657 3.574-8.855 1.895-14.032-.409-1.26 1.755-3.719 3.223-5.112 1.186-1.125 3.106-1.478 5.604-2.568-5.087-3.333-7.035-6.65-2.266-10.823.564-.493.626-2.027.368-2.919-1.59-5.503-3.336-10.962-5.043-16.432-.12-.385-.461-.723-.506-1.106-.319-2.701-.586-5.408-.87-8.114h7.023c-.18-3.378-.38-7.136-.382-11.375 19.423 30.492 38.649 61.464 57.497 92.909-3.36 1.51-7.205 1.713-9.169 3.74-6.018 6.213.402 11.413 3.592 17.294-3.013.182-4.803.436-6.58.366-3.539-.14-3.587 1.867-3.72 4.704-.365 7.775-.901 15.568-1.939 23.277-1.073 7.968-2.79 15.85-4.29 23.759-.283 1.492-.448 3.794-1.383 4.247-5.41 2.622-3.464 6.415-2.287 10.379.747 2.518.898 5.214 1.316 7.832-14.592 2.066-14.592 2.066-16.43-5.52-3.86-3.217-6.326-5.77-9.26-7.553-2.126-1.292-4.872-1.563-7.341-2.289q-17.163-25.912-34.33-51.825c-2.424-3.66-4.857-7.313-7.387-11.38z"/><path fill="#ebad55" d="M307.066 936.64c3.09-1.77 6.405-3.047 9.582-4.606 1.229-.604 1.996-2.16 3.228-2.745 5.46-2.593 9.812-5.33 12.235-11.948 1.849-5.052 5.595-8.97 3.402-15.05-1.282-3.555.44-5.893 4.71-5.384 4.385.523 6.017-1.336 6.323-5.883.197-2.924 2.722-5.622 3.713-8.586.728-2.179 1.67-5.158.77-6.855-3.465-6.547-3.419-7.164 3.696-9.526.891-.296 1.594-1.156 2.595-2.18 19.43 16.855 38.665 34.114 62.095 46.444-.993.976-2.039 1.336-3.084 1.696 1.632 3.781 2.84 7.85 5.117 11.191.838 1.23 4.484 1.532 6.346.861 3.525-1.27 6.687-3.552 9.999-5.413 3.139 1.253 6.277 2.506 9.83 4.348.068 6.445-3.423 9.596-8.605 11.589-1.968.757-4.106 1.976-5.325 3.612-4.278 5.74-8.152 11.78-12.282 17.632-.663.939-1.778 2.003-2.815 2.163-7.771 1.198-9.805 7.008-10.903 13.449-.683 4.01-2.756 5.828-6.783 6.501-7.836 1.31-12.306 8.41-10.478 15.932-23.92-10.3-45.33-24.637-65.423-41.021-6.144-5.01-11.86-10.547-17.943-16.222z"/><path fill="#e8a54b" d="M398.693 766.38c-8.65-17.158-11.897-35.64-11.166-54.512 1.84-47.56 22.794-84.67 62.785-110.766 6.39-4.169 8.99-3.663 12.982 2.586a25766 25766 0 0 1 35.137 55.196c.961 1.513 1.777 3.117 2.167 3.806-7.254 6.271-14.08 12.173-21.725 18.18-6.18-5.564-12.315-4.824-16.928 1.376-1.426 1.917-4.545 3.279-7.029 3.536-3.739.386-5.818 1.577-7.168 5.261-2.278 6.216-7.352 9.164-13.606 11.083-2.708.83-4.887 3.928-6.906 6.333-2.752 3.278-4.593 7.539-7.827 10.119-2.378 1.896-6.365 1.772-9.94 2.621.361 3.592.685 7.38 1.137 11.153.416 3.46-.888 4.676-4.448 4.483-4.708-.255-9.447.08-14.651.17.478 2.548.583 3.335.776 4.1 2.129 8.427 4.271 16.85 6.41 25.275z"/><path fill="#eeb55d" d="M390.709 994.201c-2.105-7.84 2.365-14.94 10.201-16.25 4.027-.674 6.1-2.491 6.783-6.502 1.098-6.441 3.132-12.25 10.903-13.45 1.037-.16 2.152-1.223 2.815-2.162 4.13-5.853 8.004-11.893 12.282-17.632 1.22-1.636 3.357-2.855 5.325-3.612 5.182-1.993 8.673-5.144 9.025-11.472 17.15 2.976 34.217 6.903 51.47 9.675 8.987 1.444 18.3.853 27.724 1.727-3.176 1.167-6.61 1.786-10.517 2.492.796 1.324 1.284 2.164 1.799 2.988 4.32 6.921 4.072 6.637-2.199 12.157-2.989 2.631-5.165 6.39-7.095 9.97-2.297 4.261-3.805 8.94-5.893 13.325-2.403 5.044-4.646 10.248-7.744 14.854-2.722 4.047-5.627 8.973-12.228 6.62-.759-.271-2.65.553-2.899 1.261-2.358 6.733-4.475 13.55-6.661 20.344-27.339-2.992-53.246-11.096-78.37-21.993a48 48 0 0 1-4.721-2.34z"/><path fill="#f0bb64" d="M789.991 567.017c3.64 8.337 7.215 16.703 10.936 25.004 3.23 7.205 7.476 14.076 9.76 21.557 4.216 13.807 7.324 27.953 10.453 42.35-3.015-1.437-5.589-3.265-9.053-5.724-3.236 4.254-7.94 8.14-9.451 13.017-1.798 5.805-5.102 9.32-10.15 10.04-6.64.95-8.07 4.514-8.836 10.231-.516 3.853-1.928 8.304-4.496 11.009-4.895 5.157-9.07 10.128-8.833 17.723.095 3.032-.802 5.705-4.81 5.6-8.414-.219-10.619 1.642-12.324 9.96-.84 4.094-2.587 7.024-7.504 7.405-3.924.305-8.084 1.146-9.467 5.934-.063-18.636.178-37.28-.35-55.901-.194-6.82-2.212-13.587-3.061-21.176 1.011-2.437 1.233-4.88 2.446-5.565 3.77-2.13 4.443-5.151 4.747-9.107.166-2.156 2.137-5.453 3.931-5.955 4.716-1.319 7.1-4.125 7.206-8.55.178-7.432 3.994-10.638 10.972-11.88 4.096-.728 4.302-3.683 1.675-6.838-1.27-1.525-2.253-3.289-3.741-5.502 10.301.092 10.102.055 11.765-9.016.355-1.932 2.435-4.469 4.25-5.04 5.645-1.774 7.938-5.613 9.1-10.992 1.35-6.251 3.201-12.394 4.835-18.584z"/><path fill="#b87520" d="M474.494 386.314c-8.827 2.797-10.829 5.766-8.058 12.139 1.305 3.003 2.82 3.437 5.634 1.708 2.074-1.274 4.598-1.813 6.92-2.68l1.16 1.955c-.962 1.01-1.78 2.67-2.91 2.923-6.294 1.408-12.662 2.476-19.006 3.652-.396.073-.925.26-1.188.086-9.556-6.345-15.737 3.095-23.478 5.118-1.812.474-4.17 1.857-4.784 3.412-2.946 7.476-8.845 7.786-15.542 7.747-6.13-.036-12.374.415-18.37 1.629-7.673 1.553-15.123 4.181-22.715 6.167-7.168 1.874-8.356.665-8.754-6.84-.227-4.296 1.183-9.395-4.532-12.194 6.869-10.993 14.185-21.963 21.626-32.849a12160 12160 0 0 1 39.468-57.438c4.49-6.49 9.014-6.41 13.138.071a14175 14175 0 0 1 41.391 65.394z"/><path fill="#f1bd66" d="M474.212 1018.778c1.774-7.037 3.89-13.855 6.25-20.588.248-.708 2.14-1.532 2.898-1.262 6.601 2.354 9.506-2.572 12.228-6.62 3.098-4.605 5.34-9.809 7.744-14.853 2.088-4.385 3.596-9.064 5.893-13.325 1.93-3.58 4.106-7.339 7.095-9.97 6.27-5.52 6.519-5.236 2.199-12.157-.515-.824-1.003-1.664-1.8-2.988 3.908-.706 7.342-1.325 11.076-2.421 20.596-2.241 40.652-5.244 59.961-12.078 4.21-1.49 8.397-3.048 13.049-4.607-1.41 1.567-3.276 3.167-5.547 5.114 2.792 2.483 7.128 4.55 7.803 7.464.626 2.702-3.385 6.163-4.08 9.55-1.633 7.957-2.634 8.817-11.043 8.854-1.71.007-4.342 2.317-4.93 4.1-1.522 4.611-3.699 7.776-8.667 9.244-3.166.935-5.516 3.305-3.93 7.523.6 1.6.838 4.302-.076 5.342-4.212 4.793-7.857 9.772-10.208 15.81-1.316 3.38-4.814 6.105-5.49 9.492-1.03 5.162-3.045 8.71-8.9 9.753l.196 1.93c5.073 2.178 10.147 4.356 15.59 6.773-28.724 4.785-57.813 4.269-87.31-.08z"/><path fill="#eeb55d" d="M789.911 566.596c-1.554 6.61-3.406 12.754-4.756 19.005-1.161 5.38-3.454 9.218-9.1 10.993-1.814.57-3.894 3.107-4.249 5.04-1.663 9.07-1.463 9.107-11.765 9.015 1.488 2.213 2.472 3.977 3.741 5.502 2.627 3.155 2.42 6.11-1.675 6.839-6.978 1.241-10.794 4.447-10.972 11.88-.105 4.424-2.49 7.23-7.206 8.549-1.794.502-3.765 3.8-3.93 5.955-.305 3.956-.978 6.976-4.748 9.107-1.213.686-1.435 3.128-2.418 5.068-1.626-6.694-2.647-13.765-4.41-20.645-.678-2.648-3.287-4.738-4.6-7.296-6.963-13.565-13.793-27.198-20.558-41.362-.175-.74-.46-.925-.745-1.11 0 0-.004-.097.163-.546 4.46-5.778 8.009-14.535 13.212-15.665 8.583-1.863 5.49-6.885 6.854-11.28 2.056-6.628 3.515-14.754 8.189-18.903 5.144-4.568 8.133-9.03 9.47-15.292.496-2.33 2.113-4.965 1.479-6.885-1.526-4.621-1.054-8.515 1.784-13.137 4.428 5.672 8.577 2.177 12.788.37 11.124 18.126 22.248 36.251 33.452 54.798z"/><path fill="#ecb158" d="M756.343 511.415c-4.095 2.19-8.244 5.685-12.672.013-2.838 4.622-3.31 8.516-1.784 13.137.634 1.92-.983 4.555-1.48 6.885-1.336 6.261-4.325 10.724-9.47 15.292-4.673 4.15-6.132 12.275-8.188 18.903-1.363 4.395 1.73 9.417-6.854 11.28-5.203 1.13-8.753 9.887-13.173 15.695-2.908-3.737-5.688-7.95-8.464-13.028-.812-1.488-1.63-2.112-2.446-2.736-9.674-14.71-19.348-29.419-29.168-44.948 2.227-3.714 4.296-8.705 7.032-9.102 7.67-1.115 9.213-5.857 10.01-11.985.467-3.596 2.45-5.338 6.254-4.987 5.338.491 7.41-2.466 7.29-8.043a110.7 110.7 0 0 1 1.315-19.637c.331-2.092 3.244-3.83 5.089-5.612 3.057-2.953 7.709-5.3 8.914-8.846 1.34-3.94-.706-8.7-5.596-10.925-.885-.403-1.17-2.127-1.733-3.24 1.347.055 3.22-.442 3.954.258 4.275 4.076 7.91 2.916 11.466-.861 13.196 20.701 26.392 41.402 39.704 62.487z"/><path fill="#e09d43" d="M546.304 356.362c2.405.345 5.151.616 7.277 1.908 2.934 1.782 5.4 4.336 9.26 7.553 1.838 7.586 1.838 7.586 16.43 5.52-.418-2.618-.569-5.314-1.316-7.832-1.177-3.964-3.122-7.757 2.287-10.38.935-.452 1.1-2.754 1.383-4.246 1.5-7.908 3.217-15.79 4.29-23.759 1.038-7.709 1.574-15.502 1.938-23.277.134-2.837.182-4.844 3.72-4.704 1.778.07 3.568-.184 6.581-.366-3.19-5.88-9.61-11.081-3.592-17.294 1.964-2.027 5.808-2.23 9.326-3.325a1653 1653 0 0 1 39.036 59.648c-4.887 7.495-6.075-4.813-9.727-.631-1.95 5.468-4.038 11.06-7.021 16.123-4.592 7.792-1.005 16.227-2.533 24.227-.21 1.093 2.13 2.475 2.569 3.94.574 1.917.808 4.11.498 6.076-.357 2.264-1.619 4.37-2.221 6.615-1.382 5.156-.518 11.33-7.882 13.346-1.537.42-2.515 4.38-2.972 6.854-.511 2.765.134 5.733-.269 8.534-.186 1.298-1.46 2.778-2.65 3.434-.514.283-2.132-1.23-3.124-2.073-1.754-1.493-3.414-3.099-5.113-4.658-2.62 3.439-10.387.025-9.974 7.502-1.566-1.783-3.362-3.413-4.663-5.373-10.638-16.013-21.183-32.088-31.574-48.779-.504-1.23-1.19-1.827-1.878-2.424 0 0 .122-.15.16-.521-.817-1.33-1.67-2.287-2.523-3.243 0 0 .101-.045.021-.29a6.7 6.7 0 0 0-.968-1.088s-.075 0-.107-.402c-.497-.922-.962-1.443-1.427-1.964-1.06-1.424-2.118-2.847-3.242-4.651z"/><path fill="#eaaa50" d="M716.549 448.52c-3.465 4.185-7.1 5.345-11.376 1.27-.734-.7-2.607-.204-3.954-.26.562 1.114.848 2.838 1.733 3.24 4.89 2.225 6.936 6.987 5.596 10.926-1.205 3.546-5.857 5.893-8.914 8.846-1.845 1.782-4.758 3.52-5.09 5.612a110.7 110.7 0 0 0-1.314 19.637c.12 5.577-1.952 8.534-7.29 8.043-3.804-.35-5.787 1.391-6.255 4.987-.796 6.128-2.34 10.87-10.009 11.985-2.736.397-4.805 5.388-7.249 8.763-10.072-14.4-20.105-29.26-30.065-44.17-4.192-6.274-8.232-12.65-11.936-19.375 6.725.428 13.038 1.303 19.367 2.052 3.313.392 5.354-.782 5.789-4.523.488-4.202 1.054-8.492 2.387-12.475 1.942-5.806-.064-14.181 9.383-15.657.708-.111 1.251-1.931 1.686-3.03 2.286-5.788 4.373-11.66 6.796-17.389 3.31-7.823 10.037-15.596-1.841-23.107l.945-1.607 12.841-3.311c12.893 19.711 25.786 39.422 38.77 59.542z"/><path fill="#e8a44a" d="M677.628 388.562c-4.13 1.518-8.41 2.622-12.69 3.726l-.945 1.607c11.878 7.51 5.15 15.284 1.841 23.107-2.423 5.73-4.51 11.6-6.796 17.389-.435 1.099-.978 2.919-1.686 3.03-9.447 1.476-7.441 9.851-9.383 15.657-1.333 3.984-1.899 8.274-2.387 12.475-.435 3.741-2.476 4.915-5.79 4.523-6.328-.749-12.641-1.624-19.46-2.458-9.626-13.896-18.753-27.779-27.853-42.091-.387-7.907 7.38-4.493 10-7.932 1.7 1.56 3.359 3.165 5.113 4.658.992.844 2.61 2.356 3.124 2.073 1.19-.656 2.464-2.136 2.65-3.434.403-2.801-.242-5.77.27-8.534.456-2.474 1.434-6.434 2.97-6.854 7.365-2.015 6.501-8.19 7.883-13.346.602-2.246 1.864-4.35 2.221-6.615.31-1.966.076-4.159-.498-6.077-.439-1.464-2.778-2.846-2.57-3.939 1.53-8-2.058-16.435 2.534-24.227 2.983-5.063 5.07-10.655 7.02-16.123 3.653-4.182 4.84 8.126 9.82 1.03 9.974 14.738 19.737 29.929 29.549 45.088 1.525 2.357 3.269 4.572 5.063 7.267z"/><path fill="#ebad55" d="M502.772 763.15c.634 5.164-3.288 11.161 6.372 13.97l-3.157 2.129c-1.688-.842-3.785-1.304-4.985-2.6-3.144-3.394-5.99-3.405-7.496.821-1.006 2.824-.946 6.035-1.31 9.08-.24 1.992-.232 4.032-.69 5.967-.101.428-1.7.5-2.61.737-.301-1.822-.576-3.65-.927-5.461-.067-.341-.436-.623-1.455-1.995-2.632 11.049-11.648 9.924-20.514 11.107l3.461 6.469c-3.273 3.811-6.02 7.775-9.576 10.779-1.466 1.238-4.671.428-7.087.521-1.283.05-2.568.037-3.852.053.311 1.226.554 2.474.947 3.674.98 2.992 2.03 5.961 3.039 9.442-3.106-1.39-6.2-3.282-9.7-5.766-.698-.903-1.055-1.085-1.476-1.141-18.348-13.21-31.96-30.314-41.176-51.079 4.187 1.37 7.02.97 8.592-3.437.745-2.088 2.028-3.984 3.068-5.967l1.942 1.94 4.144 2.935 14.538-10.957c-.08-.324-.348-1.088-.452-1.873-.87-6.574.931-8.619 7.332-9.227 1.016-.097 2.81-2.471 2.577-3.354-.805-3.061 0-4.538 2.974-5.45 3.651-1.12 4.85-3.43 2.694-7-2.094-3.465-1.405-7.063 2.293-8.047 6.158-1.638 7.607-4.898 5.546-11.138 2.154.46 3.687 1.164 5.093 2.066 2.52 1.617 4.963 3.354 7.438 5.04.142 1.733.283 3.464.112 5.94.09 1.785.491 2.825.893 3.864.208.543.415 1.086.431 2.212.035.864.26 1.145.487 1.426.387.908.774 1.816 1.156 3.504.395 1.407.794 2.036 1.194 2.664 3.252 4.98 6.505 9.959 9.54 15.713-1.75 1.69-3.605 2.313-4.759 3.577-3.342 3.659-2.163 7.751.474 10.918 2.997 3.602 5.778.478 8.243-1.488 2.2-1.753 4.254-3.688 6.373-5.543 3.28 1.613 6.56 3.226 10.269 4.975z"/><path fill="#e9a84f" d="M548.478 659.132c-11.004-17.21-22.005-34.423-33.018-51.627-.646-1.01-1.393-1.955-1.723-3.34 5.377-2.613 10-3.548 14.62 1.003 3.413 3.364 6.156 1.819 8.502-2.27 4.154-7.244 6.613-15.53 14.006-20.885 2.515-1.82 4.622-6.449 4.258-9.474-.537-4.47 1.714-5.605 4.446-7.481 1.872-1.286 4.579-3.271 4.615-4.992.167-7.951 2.85-14.672 7.95-20.587 10.932 17.108 21.857 34.22 32.805 51.318 1.506 2.352 3.125 4.63 4.683 7.738-5.51 3.393-11.71 5.22-12.884 12.58-.05.309-.584.533-.877.812-7.088 6.766-12.045 14.538-11.77 24.809.105 3.915-1.722 6.611-5.735 6.192-7.033-.735-9.555 3.011-10.16 9.09-.344 3.46-2.17 3.713-5.36 3.93-4.835.328-9.577 2.052-14.358 3.184z"/><path fill="#f2c16a" d="M736.076 741.512c1.523-5.177 5.683-6.018 9.607-6.323 4.917-.381 6.664-3.31 7.504-7.406 1.705-8.317 3.91-10.178 12.324-9.958 4.008.104 4.905-2.57 4.81-5.601-.236-7.595 3.938-12.566 8.833-17.723 2.568-2.705 3.98-7.156 4.496-11.009.766-5.717 2.197-9.282 8.837-10.23 5.047-.721 8.35-4.236 10.149-10.04 1.51-4.878 6.215-8.764 9.451-13.018 3.464 2.46 6.038 4.287 9.005 6.208 1.521 8.253 2.65 16.413 3.733 25.122-6.812 5.785-10.423 12.681-11.813 21.135-.517 3.14-2.812 5.992-4.334 8.956-.352.687-1.326 1.372-1.232 1.925 2.281 13.42-8.615 16.56-16.81 21.902-1.94 1.265-4.411 2.963-4.931 4.916-1.445 5.425-4.49 8.204-9.986 8.684-.893.078-1.714.983-3.317 1.964 4.3 5.116 3.993 10.105-1.248 14.095-2.148 1.636-4.728 3.126-7.32 3.656-3.682.753-5.61 2.158-6.187 6.124-.835 5.744-4.206 9.325-9.708 12.081-3.275 1.64-5.236 6.4-7.173 10.08-1.848 3.514-3.59 6.44-8.196 5.424-8.743-1.925-13.618 2.472-16.66 10.054-.208.515-1.369.647-2.55.973 4.756-12.797 9.975-25.61 15.838-38.944 1.413-3.796 2.182-7.07 2.95-10.345 0 0 .033.16.377-.074 1.052-5.356 1.76-10.476 2.468-15.596.012-.567.025-1.134.528-2.17.465-1.256.44-2.043.413-2.829 0-.548.001-1.096.142-2.033z"/><path fill="#ecb158" d="M548.555 659.549c4.704-1.549 9.446-3.273 14.282-3.602 3.19-.216 5.015-.468 5.36-3.929.604-6.079 3.126-9.825 10.159-9.09 4.013.42 5.84-2.277 5.735-6.192-.275-10.27 4.682-18.043 11.77-24.809.293-.28.828-.503.877-.813 1.174-7.359 7.375-9.186 13.088-12.217 12.855 18.335 26.14 36.738 33.471 58.943-1.443 1.398-3.594 3.527-4.225 3.145-8.719-5.283-11.437 3.578-16.283 6.902-2.587 1.775-4.15 4.977-6.48 7.218-2.663 2.563-4.574 4.7-2.21 8.795 1.76 3.049.314 5.718-3.642 5.685-4.67-.038-6.854 2.518-8.319 6.591-1.596 4.438-4.125 7.332-9.819 7.177-5.166-.141-10.429 1.275-15.534 2.489-1.083.257-2.143 2.531-2.39 4.013-.618 3.725-.766 7.529-1.527 11.481 1.401-15.087-2.362-28.836-11.245-41.372-4.592-6.48-8.677-13.32-13.068-20.415z"/><path fill="#da973e" d="M532.599 477.46c7.417 11.529 14.834 23.058 21.845 35.054-1.977.847-3.599 1.697-5.11 1.531-7.983-.876-9.739 4.884-10.383 10.512-.681 5.956-3.476 8.813-8.856 10.855-10.225 3.883-17.865 11.048-23.47 20.48-.922 1.554-2.726 2.998-4.432 3.577-2.963 1.004-6.168 1.294-9.273 1.88-2.025-8.397-4.879-9.865-10.502-5.406-9.044-13.928-18.087-27.856-27.037-42.671 1.661-2.068 3.065-3.771 4.829-4.326 4.393-1.381 9.005-2.054 13.425-3.364 3.826-1.135 9.19-1.224 6.776-8.02-.342-.962.859-3.201 1.893-3.69.822-.389 2.596.83 3.73 1.64.878.627 1.42 1.726 2.731 3.413 1.063-1.997 1.455-3.669 2.51-4.519 2.217-1.788 4.869-4.561 7.189-4.42 7.534.462 12.167-3.005 15.884-8.907 1.927-3.062 4.869-4.78 8.221-2.409 3.946 2.79 7.015 1.896 10.03-1.21z"/><path fill="#e4a147" d="M482.504 556.36c5.537-4.876 8.391-3.408 10.416 4.989 3.105-.586 6.31-.876 9.273-1.88 1.706-.579 3.51-2.023 4.433-3.576 5.604-9.433 13.244-16.598 23.469-20.48 5.38-2.043 8.175-4.9 8.856-10.856.644-5.628 2.4-11.388 10.383-10.512 1.511.166 3.133-.684 5.237-1.113 6.15 8.55 11.768 17.15 17.474 26.148-5.011 6.314-7.694 13.035-7.861 20.986-.037 1.72-2.743 3.706-4.615 4.992-2.732 1.876-4.983 3.012-4.446 7.48.364 3.026-1.743 7.654-4.258 9.475-7.393 5.355-9.852 13.641-14.006 20.885-2.346 4.089-5.09 5.634-8.502 2.27-4.62-4.551-9.243-3.616-14.711-1.413-10.66-15.66-20.858-31.32-31.142-47.396z"/><path fill="#ce8b33" d="M532.518 477.042c-2.934 3.524-6.003 4.418-9.949 1.628-3.352-2.37-6.294-.653-8.221 2.409-3.717 5.902-8.35 9.369-15.884 8.908-2.32-.143-4.972 2.63-7.19 4.42-1.054.85-1.446 2.521-2.51 4.518-1.31-1.687-1.852-2.786-2.73-3.413-1.134-.81-2.908-2.029-3.73-1.64-1.034.489-2.235 2.728-1.893 3.69 2.414 6.796-2.95 6.885-6.776 8.02-4.42 1.31-9.032 1.983-13.425 3.364-1.764.555-3.168 2.258-4.818 3.89a472 472 0 0 1-18.228-26.473c-.163-.63-.443-.714-.723-.8 0 0-.037-.14.143-.67 2.965-2.42 5.541-5.297 8.59-5.945 3.707-.787 6.11-2.621 9.163-4.517 8.09-5.024 11.592-17.002 23.76-15.862 2.819.264 5.83-.177 8.576-.935 1.915-.53 3.658-2 5.242-3.33 1.758-1.476 3.138-3.4 4.88-4.9 3.82-3.29 10.975-1.83 12.347-8.655 7.765 11.958 15.53 23.917 23.376 36.293z"/><path fill="#eaaa50" d="M468.476 714.849c-2.592-1.147-5.035-2.884-7.555-4.501-1.406-.902-2.94-1.606-5.093-2.066 2.061 6.24.612 9.5-5.546 11.138-3.698.984-4.387 4.582-2.293 8.047 2.157 3.57.957 5.88-2.694 7-2.975.912-3.78 2.389-2.974 5.45.232.883-1.56 3.257-2.577 3.354-6.4.608-8.201 2.653-7.332 9.227.104.785.372 1.55.452 1.873-4.912 3.702-9.55 7.199-14.538 10.957l-4.144-2.935-1.943-1.94c-1.039 1.983-2.322 3.879-3.067 5.967-1.571 4.408-4.405 4.806-8.63 2.99-.93-.815-1.384-1.585-1.844-2.693-2.144-8.762-4.286-17.185-6.415-25.613-.193-.764-.298-1.551-.776-4.099 5.204-.09 9.943-.425 14.65-.17 3.56.193 4.865-1.022 4.45-4.483-.453-3.773-.777-7.561-1.137-11.153 3.574-.849 7.561-.725 9.939-2.621 3.234-2.58 5.075-6.841 7.827-10.119 2.019-2.405 4.198-5.503 6.906-6.333 6.254-1.919 11.328-4.867 13.606-11.083 1.35-3.684 3.43-4.875 7.168-5.261 2.484-.257 5.603-1.62 7.03-3.536 4.612-6.2 10.748-6.94 16.582-1.174-6.118 10.162-10.355 20.967-10.052 33.777m-61.188 27.447-3.446 1.812 1.51 1.795c.7-.936 1.4-1.871 1.936-3.607z"/><path fill="#cc8931" d="M509.046 440.341c-1.276 7.234-8.43 5.773-12.251 9.063-1.742 1.5-3.122 3.424-4.88 4.9-1.584 1.33-3.327 2.8-5.242 3.33-2.746.758-5.757 1.2-8.577.935-12.167-1.14-15.67 10.838-23.759 15.862-3.052 1.896-5.456 3.73-9.162 4.517-3.05.648-5.626 3.526-8.634 5.887-5.066-6.966-9.91-14.403-15.026-22.177 7.7-5.969 7.672-5.927 16.085-.096 1.018.705 2.748 1.236 3.81.87 4.17-1.439 8.596-2.71 12.122-5.19 1.77-1.245 1.812-4.953 2.841-8.197 6.617.531 5.787-6.529 7.615-11.26l1.691 1.017v7.871c7.672-4.273 15.719-7.006 21.17-12.378 3.914-3.858 6.594-5.078 11.962-2.893.3-2.216.525-3.877.772-6.049 3.138 4.186 6.253 8.884 9.463 13.988z"/><path fill="#eeb55d" d="M437.49 918.333c-3.01 2.184-6.17 4.465-9.696 5.736-1.862.671-5.508.369-6.346-.86-2.277-3.341-3.485-7.411-5.117-11.192 1.045-.36 2.091-.72 3.359-1.387 5.98 2.256 11.738 4.818 17.8 7.703z"/><path fill="#ecb158" d="M492.269 757.828c-1.885 2.202-3.94 4.137-6.139 5.89-2.465 1.966-5.246 5.09-8.243 1.489-2.637-3.168-3.816-7.26-.474-10.92 1.154-1.263 3.008-1.886 4.796-3.15 3.445 1.882 6.636 4.113 10.06 6.691z"/><path fill="#c4812a" d="M277.163 529.947c.903 4.888 1.436 10.007 2.04 15.796-.068-.01.877.171 1.83.25 1.48.125 2.968.18 4.452.264-.12.92.083 2.34-.422 2.666-1.44.935-3.545 2.382-4.717 1.92-4.235-1.668-8.194-4.038-12.333-6.555 2.877-4.979 5.829-9.544 9.15-14.34z"/><path fill="#f1bd66" d="M619.189 909.193c-4.318 2.579-9.072 5.222-14.07 7.543 4.383-2.707 9.008-5.093 14.07-7.543z"/><path fill="#b87520" d="M354.56 416.365c-1.854 3.413-4.043 7.054-6.67 10.72 1.82-3.481 4.077-6.987 6.67-10.72z"/><path fill="#f0bb64" d="M734.832 749.003c-.547 4.661-1.254 9.781-2.387 15.121.458-4.74 1.342-9.701 2.387-15.121zm-3.018 15.494a51.3 51.3 0 0 1-2.398 9.652c.404-3.048 1.233-6.208 2.398-9.652z"/><path fill="#ecb158" d="M572.146 723.32c-.128 1.926-.428 4.285-1.169 6.723.039-2.044.518-4.168 1.169-6.724z"/><path fill="#ebad55" d="M356.415 860.827c-1.213-.89-2.584-2.149-3.966-3.87 1.262.858 2.535 2.18 3.966 3.87z"/><path fill="#b87520" d="M358.088 411.233c-.537 1.462-1.415 3.126-2.737 4.837.503-1.513 1.45-3.074 2.737-4.837z"/><path fill="#eaaa50" d="M469.447 724.825c-.485-.672-.886-1.712-1.03-2.976.543.72.828 1.664 1.03 2.976z"/><path fill="#d6933a" d="M552.095 365.14c.785.574 1.638 1.53 2.429 2.953-.828-.547-1.594-1.558-2.429-2.953z"/><path fill="#f0bb64" d="M735.718 743.807c.242.524.268 1.31-.029 2.172-.277-.586-.232-1.248.03-2.172z"/><path fill="#d6933a" d="M554.463 368.866c.614.252 1.301.848 1.702 1.67-.734-.293-1.181-.81-1.702-1.67z"/><path fill="#eeb55d" d="M691.877 577.246c.752.234 1.569.858 2.396 1.916-.77-.22-1.55-.873-2.396-1.916z"/><path fill="#eaaa50" d="M472.61 734.615c-.378-.245-.777-.874-1.175-1.898.385.241.77.878 1.176 1.898z"/><path fill="#d6933a" d="M549.616 361.366c.395.168.86.689 1.375 1.578-.401-.162-.853-.694-1.375-1.578z"/><path fill="#b87520" d="M347.167 427.276c.021.52-.279 1.246-.97 2.097-.045-.547.302-1.22.97-2.097z"/><path fill="#c4812a" d="M577.94 6.467c.099.025.182.023.102-.027-.162-.047-.119 0-.103.027z"/><path fill="#cc8931" d="M499.572 425.536q-.42.04-1.048-1.033.419-.04 1.048 1.033z"/><path fill="#ecb158" d="M702.562 593.385c.243-.064.528.122.615.446-.198.14-.573-.197-.615-.446z"/><path fill="#cc8931" d="M436.482 485.736c.239-.087.52-.003.577.21-.223.128-.536-.038-.577-.21z"/><path fill="#eeb65e" d="M441.904 821.213c.273-.221.63-.039 1.087.527-.202.087-.57-.081-1.087-.527z"/><path fill="#f3c46d" d="M819.34 773.953c-.283.066-.465-.143-.584-.383-.028-.058.153-.22.43-.428.22.111.249.318.153.81z"/><path fill="#eaaa50" d="M470.279 728.524c-.223.025-.45-.256-.506-.68.17-.142.502.373.506.68z"/><path fill="#d6933a" d="M551.127 363.701c.25-.041.546.24.925.82-.238.035-.558-.232-.925-.82z"/><path fill="#d9963d" d="M219.834 720.064c-.682.298-1.289.232-1.896.167l.415-1.632c.518.368 1.037.736 1.48 1.465z"/><path fill="#e8a54b" d="M407.37 742.696c-.618 1.336-1.318 2.271-2.017 3.207l-1.511-1.795c1.148-.604 2.297-1.208 3.527-1.412z"/></svg>